<?xml version="1.0" encoding="utf-8"?>
<!-- Generator: Adobe Illustrator 28.1.0, SVG Export Plug-In . SVG Version: 6.00 Build 0)  -->
<svg version="1.1" id="Ebene_1" xmlns="http://www.w3.org/2000/svg" xmlns:xlink="http://www.w3.org/1999/xlink" x="0px" y="0px"
	 viewBox="0 0 25 25" style="enable-background:new 0 0 25 25;" xml:space="preserve">
<style type="text/css">
	.st0{fill:#426C2B;}
	.st1{fill:#4E6B2C;}
	.st2{fill:#FFFFFF;}
	.st3{fill:#53A00A;}
</style>
<g>
	<path class="st0" d="M13.5,2.9h4.1c0.9,0,1.6,0.7,1.6,1.6v4.1c0,0.5-0.1,1-0.2,1.4h1.3c1,0,1.8,0.8,1.8,1.8v4.7
		c0,3.5-2.9,6.4-6.4,6.4c-1.5,0-2.9-0.5-4-1.4l-1.2,1.2c-0.3,0.3-0.7,0.3-1,0c-0.3-0.3-0.3-0.7,0-1l1.2-1.2
		c-0.5-0.6-0.9-1.4-1.1-2.1c-3,0.9-6.2-0.7-7.2-3.7C2.1,14.1,2,13.5,2,12.9V8.9C2,8,2.8,7.2,3.7,7.2h4.1c0.1,0,0.1,0,0.2,0
		C8.6,4.7,10.8,2.9,13.5,2.9 M16.1,17l-3.5,3.5c2.2,1.6,5.3,1.2,7-1c0.6-0.9,1-1.9,1-3v-4.7c0-0.2-0.2-0.3-0.3-0.3h-4.7
		c-2.8,0-5,2.2-5,5c0,1.1,0.3,2.1,1,3l3.5-3.5c0.3-0.3,0.7-0.3,1,0C16.4,16.3,16.4,16.7,16.1,17L16.1,17 M17.5,10.1
		c0.2-0.4,0.2-0.9,0.2-1.4V4.6c0-0.1-0.1-0.2-0.2-0.2h-4.1c-1.9,0-3.6,1.3-4.1,3.1c1.6,0.5,3,1.6,3.6,3.2c0.8-0.4,1.7-0.6,2.6-0.6
		L17.5,10.1L17.5,10.1z M11.7,11.4c-0.6-1.6-2.2-2.7-4-2.7H3.7c-0.1,0-0.2,0.1-0.2,0.2l0,0v4.1c0,2.4,1.9,4.3,4.3,4.3
		c0.5,0,1-0.1,1.4-0.2c0-0.5,0-1,0.1-1.5l-2.7-2.7c-0.3-0.3-0.3-0.7,0-1c0.3-0.3,0.7-0.3,1,0l2.2,2.2C10.2,12.9,10.8,12,11.7,11.4"
		/>
	<path class="st1" d="M9.9,23.1c-0.2,0-0.4-0.1-0.6-0.2C9,22.5,9,22,9.3,21.6l1.1-1.1c-0.5-0.6-0.8-1.3-1-2c-3,0.9-6.2-0.8-7.2-3.9
		c-0.2-0.6-0.3-1.2-0.3-1.8V8.9c0-1,0.8-1.8,1.8-1.8h4.2c0.7-2.5,3-4.3,5.6-4.3h4.1c1,0,1.8,0.8,1.8,1.8v4.1c0,0.4,0,0.9-0.1,1.3
		h1.1c1,0,1.9,0.9,1.9,1.9v4.7c0,3.6-2.9,6.6-6.6,6.6c-1.4,0-2.9-0.5-4-1.4l-1.1,1.1C10.3,23,10.1,23.1,9.9,23.1z M9.5,18.2l0,0.1
		c0.2,0.8,0.6,1.5,1.1,2.1l0.1,0.1l-1.3,1.3c-0.1,0.1-0.2,0.3-0.2,0.4c0,0.2,0.1,0.3,0.2,0.4c0.2,0.2,0.6,0.2,0.8,0l1.3-1.3l0.1,0.1
		c1.1,0.9,2.5,1.4,3.9,1.4c3.5,0,6.3-2.8,6.3-6.3v-4.7c0-0.9-0.7-1.7-1.7-1.7h-1.4l0-0.2C19,9.6,19,9.1,19,8.7V4.6
		c0-0.8-0.7-1.5-1.5-1.5h-4.1c-2.6,0-4.8,1.7-5.4,4.2l0,0.1H3.7C2.8,7.4,2.1,8,2.1,8.9v4.1c0,0.6,0.1,1.1,0.3,1.7
		c0.4,1.4,1.4,2.6,2.7,3.3c1.3,0.7,2.8,0.8,4.3,0.4L9.5,18.2z M15.6,21.6c-1.1,0-2.2-0.4-3.1-1l-0.1-0.1l3.6-3.6
		c0.1-0.1,0.2-0.3,0.2-0.4c0-0.2-0.1-0.3-0.2-0.4c-0.2-0.2-0.6-0.2-0.8,0l-3.6,3.6l-0.1-0.1c-0.7-0.9-1-2-1-3.1
		c0-2.8,2.3-5.1,5.1-5.1h4.7c0.3,0,0.5,0.2,0.5,0.5v4.7c0,1.1-0.4,2.2-1,3.1c-0.8,1.1-2,1.8-3.4,2C16.1,21.6,15.8,21.6,15.6,21.6z
		 M12.8,20.5c1,0.7,2.3,1,3.5,0.8c1.3-0.2,2.4-0.9,3.2-1.9c0.6-0.8,1-1.9,1-2.9v-4.7c0-0.1-0.1-0.2-0.2-0.2h-4.7
		c-2.7,0-4.9,2.2-4.9,4.9c0,1,0.3,2,0.9,2.8l3.4-3.4c0.3-0.3,0.9-0.3,1.2,0c0.2,0.2,0.3,0.4,0.3,0.6c0,0.2-0.1,0.4-0.2,0.6h0
		L12.8,20.5z M7.7,17.4c-2.4,0-4.4-2-4.4-4.4V8.9c0-0.2,0.2-0.3,0.3-0.3h4.1c1.8,0,3.4,1.1,4.1,2.8l0,0.1l-0.1,0.1
		c-0.9,0.6-1.5,1.5-2,2.5l-0.1,0.2l-2.3-2.3c-0.2-0.2-0.6-0.2-0.8,0c-0.1,0.1-0.2,0.3-0.2,0.4c0,0.2,0.1,0.3,0.2,0.4l2.8,2.8l0,0.1
		c-0.1,0.5-0.1,1-0.1,1.5l0,0.1l-0.1,0C8.7,17.3,8.2,17.4,7.7,17.4z M3.7,8.8C3.6,8.8,3.6,8.8,3.7,8.8l-0.1,4.2
		c0,2.3,1.9,4.2,4.2,4.2c0.4,0,0.9-0.1,1.3-0.2c0-0.5,0-0.9,0.1-1.4l-2.7-2.7c-0.3-0.3-0.3-0.9,0-1.2c0.3-0.3,0.9-0.3,1.2,0l2.1,2.1
		c0.5-0.9,1.1-1.7,1.9-2.4c-0.7-1.6-2.1-2.5-3.8-2.5H3.7z M12.9,10.8l-0.1-0.1c-0.7-1.5-2-2.7-3.6-3.1l-0.1,0l0-0.1
		c0.6-1.9,2.3-3.2,4.2-3.2h4.1c0.2,0,0.3,0.2,0.3,0.3v4.1c0,0.5-0.1,1-0.3,1.5l-0.2,0.7v-0.6h-1.8c-0.9,0-1.8,0.2-2.6,0.5L12.9,10.8
		z M9.5,7.4c1.6,0.5,2.8,1.6,3.5,3.1c0.8-0.3,1.7-0.5,2.6-0.5h1.8c0.1-0.4,0.2-0.8,0.2-1.3V4.6c0,0,0-0.1-0.1-0.1h-4.1
		C11.7,4.5,10.1,5.7,9.5,7.4z"/>
</g>
</svg>
