<?xml version="1.0" encoding="utf-8"?>
<!-- Generator: Adobe Illustrator 28.1.0, SVG Export Plug-In . SVG Version: 6.00 Build 0)  -->
<svg version="1.1" id="Ebene_1" xmlns="http://www.w3.org/2000/svg" xmlns:xlink="http://www.w3.org/1999/xlink" x="0px" y="0px"
	 viewBox="0 0 25 25" style="enable-background:new 0 0 25 25;" xml:space="preserve">
<style type="text/css">
	.st0{fill:#426C2B;}
	.st1{fill:#4E6B2C;}
	.st2{fill:#FFFFFF;}
	.st3{fill:#53A00A;}
</style>
<path class="st2" d="M20.2,10h-1.1c0.1-0.4,0.1-0.9,0.1-1.3V4.6c0-1-0.8-1.8-1.8-1.8h-4.1c-2.6,0-4.9,1.8-5.6,4.3H3.7
	c-1,0-1.8,0.8-1.8,1.8v4.1c0,0.6,0.1,1.2,0.3,1.8c1,3,4.2,4.7,7.2,3.9c0.2,0.7,0.6,1.4,1,2l-1.1,1.1C9.1,21.8,9,22,9,22.2
	c0,0.2,0.1,0.4,0.2,0.6c0.2,0.2,0.4,0.2,0.6,0.2c0.2,0,0.4-0.1,0.6-0.2l1.1-1.1c1.1,0.9,2.6,1.4,4,1.4c3.6,0,6.6-2.9,6.6-6.6v-4.7
	C22.1,10.8,21.3,10,20.2,10z M16.2,17.1c0.2-0.2,0.2-0.4,0.2-0.6c0-0.2-0.1-0.4-0.3-0.6c-0.3-0.3-0.9-0.3-1.2,0l-3.4,3.4
	c-0.6-0.8-0.9-1.8-0.9-2.8c0-2.7,2.2-4.9,4.9-4.9h4.7c0.1,0,0.2,0.1,0.2,0.2v4.7c0,1.1-0.3,2.1-1,2.9c-0.8,1-1.9,1.7-3.2,1.9
	c-1.2,0.2-2.5-0.1-3.5-0.8L16.2,17.1z M17.6,8.7c0,0.5-0.1,0.9-0.2,1.3h-1.8c-0.9,0-1.7,0.2-2.6,0.5c-0.7-1.5-2-2.6-3.5-3.1
	c0.6-1.7,2.2-2.9,4-2.9h4.1c0,0,0.1,0,0.1,0.1V8.7z M6.4,11.6c-0.3,0.3-0.3,0.9,0,1.2l2.7,2.7C9,16,9,16.4,9,16.9
	c-0.4,0.1-0.9,0.2-1.3,0.2c-2.3,0-4.2-1.9-4.2-4.2V8.9c0,0,0-0.1,0.1-0.1h4.1c1.7,0,3.2,1,3.8,2.5c-0.8,0.6-1.5,1.4-1.9,2.4
	l-2.1-2.1C7.3,11.3,6.7,11.3,6.4,11.6z"/>
</svg>
