<?xml version="1.0" encoding="utf-8"?>
<!-- Generator: Adobe Illustrator 28.1.0, SVG Export Plug-In . SVG Version: 6.00 Build 0)  -->
<svg version="1.1" id="Ebene_1" xmlns="http://www.w3.org/2000/svg" xmlns:xlink="http://www.w3.org/1999/xlink" x="0px" y="0px"
	 viewBox="0 0 24 24" style="enable-background:new 0 0 24 24;" xml:space="preserve">
<style type="text/css">
	.st0{fill:#4C6A2B;stroke:#4C6A2B;stroke-width:0.5;stroke-miterlimit:10;}
</style>
<path class="st0" d="M13.33,2.72h3.78c0.84,0,1.52,0.68,1.52,1.52v3.78c0,0.46-0.06,0.9-0.17,1.33h1.17c0.91,0,1.65,0.74,1.65,1.65
	v4.32c0,3.29-2.67,5.97-5.97,5.97c-1.35,0-2.67-0.46-3.72-1.3l-1.11,1.11c-0.26,0.26-0.68,0.26-0.94,0c-0.26-0.26-0.26-0.68,0-0.94
	l1.11-1.11c-0.47-0.59-0.82-1.26-1.04-1.98c-2.79,0.88-5.77-0.68-6.65-3.47C2.8,13.07,2.72,12.54,2.72,12V8.22
	c0-0.84,0.68-1.52,1.52-1.52h3.78c0.06,0,0.11,0,0.17,0C8.79,4.36,10.91,2.72,13.33,2.72 M15.78,15.78l-3.25,3.25
	c2.05,1.53,4.96,1.11,6.49-0.94c0.6-0.8,0.92-1.78,0.92-2.78v-4.32c0-0.18-0.14-0.32-0.32-0.32h-4.32c-2.56,0-4.64,2.08-4.64,4.64
	c0,1,0.32,1.98,0.92,2.78l3.25-3.25c0.26-0.26,0.68-0.26,0.94,0C16.04,15.1,16.04,15.52,15.78,15.78L15.78,15.78 M17.08,9.35
	c0.15-0.41,0.23-0.86,0.23-1.33V4.24c0-0.11-0.09-0.2-0.2-0.2h-3.78c-1.77,0-3.32,1.17-3.82,2.86c1.5,0.44,2.74,1.52,3.37,2.96
	c0.77-0.34,1.6-0.52,2.44-0.52H17.08z M11.73,10.55c-0.6-1.52-2.07-2.52-3.7-2.52H4.24c-0.11,0-0.2,0.09-0.2,0.2l0,0V12
	c0,2.2,1.78,3.98,3.98,3.98c0.46,0,0.91-0.08,1.34-0.23c-0.03-0.47-0.01-0.94,0.06-1.4l-2.54-2.54c-0.26-0.26-0.26-0.68,0-0.94
	s0.68-0.26,0.94,0l2.03,2.03C10.27,11.97,10.91,11.16,11.73,10.55"/>
</svg>
