<?xml version="1.0" encoding="utf-8"?>
<!-- Generator: Adobe Illustrator 28.1.0, SVG Export Plug-In . SVG Version: 6.00 Build 0)  -->
<svg version="1.1" id="Ebene_1" xmlns="http://www.w3.org/2000/svg" xmlns:xlink="http://www.w3.org/1999/xlink" x="0px" y="0px"
	 viewBox="0 0 24 24" style="enable-background:new 0 0 24 24;" xml:space="preserve">
<style type="text/css">
	.st0{fill:#426B1F;}
</style>
<path class="st0" d="M12,21c-2.5,0-4.6-0.9-6.4-2.6S3,14.5,3,12s0.9-4.6,2.6-6.4S9.5,3,12,3c0.2,0,0.5,0,0.7,0c0.2,0,0.4,0,0.7,0.1
	c-0.7,0.5-1.2,1.1-1.6,1.9c-0.4,0.8-0.6,1.6-0.6,2.5c0,1.5,0.5,2.8,1.6,3.8s2.3,1.6,3.8,1.6c0.9,0,1.8-0.2,2.5-0.6
	c0.8-0.4,1.4-1,1.9-1.6c0,0.2,0.1,0.4,0.1,0.7c0,0.2,0,0.5,0,0.7c0,2.5-0.9,4.6-2.6,6.4S14.5,21,12,21z M12,19
	c1.5,0,2.8-0.4,3.9-1.2c1.2-0.8,2-1.9,2.6-3.2c-0.3,0.1-0.7,0.1-1,0.2c-0.3,0.1-0.7,0.1-1,0.1c-2.1,0-3.8-0.7-5.2-2.2
	S9.1,9.5,9.1,7.5c0-0.3,0-0.7,0.1-1c0.1-0.3,0.1-0.7,0.2-1C8.1,6,7,6.9,6.2,8S5,10.5,5,12c0,1.9,0.7,3.6,2.1,5S10.1,19,12,19z"/>
</svg>
