<?xml version="1.0" encoding="utf-8"?>
<!-- Generator: Adobe Illustrator 28.1.0, SVG Export Plug-In . SVG Version: 6.00 Build 0)  -->
<svg version="1.1" id="Ebene_1" xmlns="http://www.w3.org/2000/svg" xmlns:xlink="http://www.w3.org/1999/xlink" x="0px" y="0px"
	 viewBox="0 0 25 25" style="enable-background:new 0 0 25 25;" xml:space="preserve">
<style type="text/css">
	.st0{fill:#426C2B;}
	.st1{fill:#4E6B2C;}
	.st2{fill:#FFFFFF;}
	.st3{fill:#53A00A;}
</style>
<path class="st0" d="M12.5,21.7l-1.4-1.3c-1.7-1.5-3.1-2.8-4.2-3.9s-2-2.1-2.6-3s-1.1-1.7-1.4-2.4S2.5,9.6,2.5,8.8
	c0-1.6,0.5-2.9,1.6-3.9S6.5,3.3,8,3.3c0.9,0,1.7,0.2,2.5,0.6s1.5,0.9,2,1.5c0.6-0.7,1.2-1.2,2-1.5s1.6-0.6,2.5-0.6
	c1.6,0,2.9,0.5,3.9,1.6c1,1,1.6,2.4,1.6,3.9c0,0.8-0.1,1.5-0.4,2.2s-0.7,1.5-1.4,2.4s-1.5,1.9-2.6,3s-2.5,2.4-4.2,3.9L12.5,21.7z
	 M12.5,19c1.6-1.4,2.9-2.7,3.9-3.7s1.9-1.9,2.4-2.7c0.6-0.8,1-1.4,1.2-2c0.4-0.6,0.5-1.2,0.5-1.8c0-1-0.3-1.8-1-2.5s-1.5-1-2.5-1
	c-0.8,0-1.5,0.2-2.2,0.7c-0.7,0.4-1.1,1-1.4,1.7h-0.9h-0.9C11.4,7,10.9,6.5,10.2,6C9.5,5.6,8.8,5.3,8,5.3c-1,0-1.8,0.3-2.5,1
	s-1,1.5-1,2.5c0,0.6,0.1,1.2,0.3,1.8c0.2,0.6,0.7,1.3,1.2,2s1.4,1.6,2.5,2.7S10.9,17.6,12.5,19z"/>
</svg>
