<?xml version="1.0" encoding="utf-8"?>
<!-- Generator: Adobe Illustrator 28.1.0, SVG Export Plug-In . SVG Version: 6.00 Build 0)  -->
<svg version="1.1" id="Ebene_1" xmlns="http://www.w3.org/2000/svg" xmlns:xlink="http://www.w3.org/1999/xlink" x="0px" y="0px"
	 viewBox="0 0 25 25" style="enable-background:new 0 0 25 25;" xml:space="preserve">
<style type="text/css">
	.st0{fill:#426C2B;}
	.st1{fill:#4E6B2C;}
	.st2{fill:#FFFFFF;}
	.st3{fill:#53A00A;}
</style>
<path class="st2" d="M5.8,20.3h3.3v-6.7h6.7v6.7h3.3v-10l-6.7-5l-6.7,5V20.3z M3.6,21.4V9.7c0-0.4,0.2-0.7,0.5-0.9L11.8,3
	c0.4-0.3,1-0.3,1.4,0l7.7,5.8c0.3,0.2,0.5,0.6,0.5,0.9v11.6c0,0.6-0.5,1.1-1.1,1.1h-5.5c-0.6,0-1.1-0.5-1.1-1.1v-5.5h-2.2v5.5
	c0,0.6-0.5,1.1-1.1,1.1H4.8C4.1,22.5,3.6,22,3.6,21.4z"/>
</svg>
