<?xml version="1.0" encoding="utf-8"?>
<!-- Generator: Adobe Illustrator 28.1.0, SVG Export Plug-In . SVG Version: 6.00 Build 0)  -->
<svg version="1.1" id="Ebene_1" xmlns="http://www.w3.org/2000/svg" xmlns:xlink="http://www.w3.org/1999/xlink" x="0px" y="0px"
	 viewBox="0 0 24 24" style="enable-background:new 0 0 24 24;" xml:space="preserve">
<style type="text/css">
	.st0{fill:#53A00A;}
</style>
<path class="st0" d="M12,15c0.8,0,1.5-0.3,2.1-0.9c0.6-0.6,0.9-1.3,0.9-2.1s-0.3-1.5-0.9-2.1S12.8,9,12,9s-1.5,0.3-2.1,0.9
	C9.3,10.5,9,11.2,9,12s0.3,1.5,0.9,2.1C10.5,14.7,11.2,15,12,15z M12,17c-1.4,0-2.6-0.5-3.5-1.5c-1-1-1.5-2.2-1.5-3.5
	s0.5-2.6,1.5-3.5S10.6,7,12,7s2.6,0.5,3.5,1.5S17,10.6,17,12s-0.5,2.6-1.5,3.5C14.6,16.5,13.4,17,12,17z M5,13H1v-2h4V13z M23,13h-4
	v-2h4V13z M11,5V1h2v4H11z M11,23v-4h2v4H11z M6.4,7.7L3.9,5.3l1.4-1.5l2.4,2.5L6.4,7.7z M18.7,20.1l-2.4-2.5l1.3-1.4l2.5,2.4
	L18.7,20.1z M16.2,6.4l2.4-2.5l1.5,1.4l-2.5,2.4L16.2,6.4z M3.9,18.7l2.5-2.4l1.4,1.3l-2.4,2.5L3.9,18.7z"/>
</svg>
