<?xml version="1.0" encoding="utf-8"?>
<!-- Generator: Adobe Illustrator 28.1.0, SVG Export Plug-In . SVG Version: 6.00 Build 0)  -->
<svg version="1.1" id="Ebene_1" xmlns="http://www.w3.org/2000/svg" xmlns:xlink="http://www.w3.org/1999/xlink" x="0px" y="0px"
	 viewBox="0 0 25 25" style="enable-background:new 0 0 25 25;" xml:space="preserve">
<style type="text/css">
	.st0{fill:#426C2B;}
	.st1{fill:#4E6B2C;}
	.st2{fill:#FFFFFF;}
	.st3{fill:#53A00A;}
</style>
<g>
	<path class="st3" d="M15.5,8.4c0.8,0,1.5-0.3,2.1-0.8c0.5-0.5,0.8-1.2,0.8-2.1S18.1,4,17.6,3.4c-0.5-0.5-1.2-0.8-2.1-0.8
		S14,2.9,13.5,3.4c-0.5,0.5-0.8,1.2-0.8,2.1s0.3,1.5,0.8,2.1C14,8.1,14.7,8.4,15.5,8.4z M14.4,5.5c0-0.4,0.1-0.6,0.2-0.8
		c0.3-0.2,0.6-0.3,0.9-0.3c0.4,0,0.6,0.1,0.8,0.3c0.2,0.2,0.3,0.4,0.3,0.8s-0.1,0.6-0.3,0.8c-0.4,0.4-1.3,0.4-1.7,0
		C14.5,6.1,14.4,5.9,14.4,5.5z"/>
	<path class="st3" d="M22.1,7.4c-0.5-0.5-1.2-0.8-2.1-0.8S18.5,6.9,18,7.4c-0.5,0.5-0.8,1.2-0.8,2.1s0.3,1.5,0.8,2.1
		c0.5,0.5,1.2,0.8,2.1,0.8s1.5-0.3,2.1-0.8c0.5-0.5,0.8-1.2,0.8-2.1S22.6,8,22.1,7.4z M21.2,9.5c0,0.4-0.1,0.6-0.3,0.8
		c-0.2,0.2-0.4,0.3-0.8,0.3c-0.4,0-0.6-0.1-0.8-0.3c-0.2-0.2-0.3-0.4-0.3-0.8s0.1-0.6,0.2-0.8c0.3-0.2,0.6-0.3,0.9-0.3
		c0.4,0,0.6,0.1,0.8,0.3C21.1,9,21.2,9.2,21.2,9.5z"/>
	<path class="st3" d="M9.5,8.4c0.8,0,1.5-0.3,2.1-0.8c0.5-0.5,0.8-1.2,0.8-2.1S12.1,4,11.6,3.4c-0.6-0.5-1.3-0.8-2-0.8
		C8.7,2.6,8,2.9,7.5,3.4C6.9,4,6.7,4.7,6.7,5.5S6.9,7,7.5,7.6C8,8.1,8.7,8.4,9.5,8.4z M8.4,5.5c0-0.4,0.1-0.6,0.2-0.8
		C9,4.5,9.3,4.4,9.5,4.4c0.4,0,0.6,0.1,0.8,0.3c0.2,0.2,0.3,0.4,0.3,0.8s-0.1,0.6-0.3,0.8c-0.4,0.4-1.3,0.4-1.7,0
		C8.5,6.1,8.4,5.9,8.4,5.5z"/>
	<path class="st3" d="M18.3,14.6c-0.5-0.5-0.8-1-1.3-1.6c-0.4-0.6-0.8-1.2-1.2-1.8c-0.4-0.4-0.8-0.8-1.4-1.2L14.1,10
		c-0.5-0.2-1-0.3-1.6-0.3c-0.7,0-1.3,0.1-1.8,0.5c-0.5,0.3-1,0.6-1.4,1.2c-0.5,0.5-0.9,1.1-1.3,1.8c-0.3,0.5-0.7,1-1.1,1.5L7,14.6
		c-0.3,0.3-0.6,0.6-0.9,1c-0.3,0.3-0.6,0.6-0.9,1c-0.6,0.8-1,1.6-1,2.5c0,0.9,0.3,1.7,0.9,2.2c0.6,0.7,1.3,1,2.2,1
		c0.9,0,1.9-0.1,2.7-0.2c0.9-0.1,1.8-0.2,2.7-0.2s1.8,0.1,2.7,0.2c0.9,0.1,1.8,0.2,2.7,0.2c0.9,0,1.6-0.3,2.2-1
		c0.6-0.7,0.9-1.5,0.9-2.2c0-1-0.3-1.7-1-2.5C19.5,15.8,18.9,15.2,18.3,14.6z M19.2,19.1c0,0.4-0.2,0.8-0.4,1.2
		c-0.2,0.2-0.4,0.3-0.8,0.3c-0.8,0-1.7-0.1-2.4-0.2c-0.9-0.2-2-0.2-2.9-0.2c-0.9,0-1.9,0.1-2.8,0.2c-0.8,0.1-1.7,0.2-2.5,0.2
		c-0.4,0-0.6-0.1-0.9-0.4c-0.4-0.3-0.6-0.6-0.6-1.1c0-0.5,0.2-0.9,0.5-1.3c0.3-0.3,0.6-0.6,0.9-1c0.3-0.3,0.6-0.6,0.9-1
		c0.5-0.6,1-1.2,1.4-1.9c0.3-0.6,0.7-1.1,1-1.5c0.3-0.3,0.5-0.5,0.9-0.8l0.1,0c0.3-0.1,0.5-0.1,0.8-0.1c0.3,0,0.7,0.1,0.9,0.3
		c0.3,0.2,0.6,0.4,0.9,0.7c0.4,0.5,0.8,1,1.1,1.5c0.4,0.7,0.9,1.3,1.5,2c0.3,0.3,0.6,0.6,0.9,0.9c0.3,0.3,0.6,0.7,0.9,0.9
		C19,18.2,19.2,18.6,19.2,19.1z"/>
	<path class="st3" d="M7.1,11.6c0.5-0.5,0.8-1.2,0.8-2.1S7.6,8,7.1,7.4C6.5,6.9,5.9,6.6,5,6.6S3.5,6.9,3,7.4C2.4,8,2.2,8.7,2.2,9.5
		S2.4,11,3,11.6c0.5,0.5,1.2,0.8,2.1,0.8S6.5,12.1,7.1,11.6z M4.2,10.3C4,10.1,3.9,9.9,3.9,9.5S4,8.9,4.1,8.7C4.5,8.5,4.8,8.4,5,8.4
		c0.4,0,0.6,0.1,0.8,0.3C6.1,9,6.2,9.2,6.2,9.5c0,0.4-0.1,0.6-0.3,0.8c-0.2,0.2-0.4,0.3-0.8,0.3C4.6,10.6,4.4,10.6,4.2,10.3z"/>
</g>
</svg>
