<?xml version="1.0" encoding="utf-8"?>
<!-- Generator: Adobe Illustrator 28.1.0, SVG Export Plug-In . SVG Version: 6.00 Build 0)  -->
<svg version="1.1" id="Ebene_1" xmlns="http://www.w3.org/2000/svg" xmlns:xlink="http://www.w3.org/1999/xlink" x="0px" y="0px"
	 viewBox="0 0 24 24" style="enable-background:new 0 0 24 24;" xml:space="preserve">
<style type="text/css">
	.st0{fill:#426C2B;stroke:#426C2B;stroke-width:0.75;stroke-miterlimit:10;}
</style>
<path class="st0" d="M15,4.1c0.4,0,0.8,0.1,1.1,0.4c0.3,0.3,0.4,0.6,0.4,1.1s-0.1,0.8-0.4,1.1C15.8,7,15.4,7.1,15,7.1
	S14.2,7,13.9,6.7s-0.4-0.6-0.4-1.1s0.1-0.8,0.4-1.1C14.2,4.3,14.6,4.1,15,4.1 M9,4.1c0.4,0,0.8,0.1,1.1,0.4s0.4,0.6,0.4,1.1
	s-0.1,0.8-0.4,1.1C9.8,7,9.4,7.1,9,7.1S8.2,7,7.9,6.7C7.6,6.4,7.5,6.1,7.5,5.6s0.1-0.8,0.4-1.1C8.2,4.3,8.6,4.1,9,4.1 M19.5,8.1
	c0.4,0,0.8,0.1,1.1,0.4C20.9,8.9,21,9.2,21,9.6s-0.1,0.8-0.4,1.1s-0.6,0.4-1.1,0.4s-0.8-0.1-1.1-0.4c-0.3-0.3-0.4-0.6-0.4-1.1
	s0.1-0.8,0.4-1.1C18.7,8.3,19.1,8.1,19.5,8.1 M4.5,8.1c0.4,0,0.8,0.1,1.1,0.4C5.9,8.9,6,9.2,6,9.6s-0.1,0.8-0.4,1.1S5,11.1,4.5,11.1
	S3.7,11,3.4,10.7S3,10.1,3,9.6s0.1-0.8,0.4-1.1C3.7,8.3,4.1,8.1,4.5,8.1 M12,11.1c0.4,0,0.8,0.1,1.1,0.3c0.4,0.2,0.7,0.5,1,0.8
	c0.4,0.5,0.8,1,1.1,1.6c0.4,0.7,0.9,1.3,1.4,1.9c0.6,0.6,1.2,1.3,1.8,1.9c0.4,0.5,0.6,1,0.6,1.6c0,0.5-0.2,1-0.5,1.4
	s-0.7,0.5-1.1,0.5c-0.8,0-1.7-0.1-2.5-0.2c-0.9-0.2-1.9-0.2-2.8-0.2s-1.9,0.1-2.8,0.2c-0.8,0.1-1.7,0.2-2.5,0.2
	c-0.5,0-0.8-0.2-1.1-0.5C5.2,20.2,5,19.8,5,19.2c0-0.6,0.2-1.1,0.6-1.6c0.6-0.6,1.2-1.3,1.8-1.9c0.5-0.6,1-1.2,1.4-1.9
	c0.3-0.5,0.7-1.1,1.1-1.6c0.3-0.3,0.6-0.6,1-0.9C11.3,11.2,11.6,11.1,12,11.1 M15,3.1c-0.7,0-1.3,0.2-1.8,0.7s-0.7,1.1-0.7,1.8
	s0.2,1.3,0.7,1.8s1.1,0.7,1.8,0.7s1.3-0.2,1.8-0.7s0.7-1.1,0.7-1.8s-0.2-1.3-0.7-1.8S15.7,3.1,15,3.1L15,3.1z M9,3.1
	c-0.7,0-1.3,0.2-1.8,0.7S6.5,4.9,6.5,5.6s0.2,1.3,0.7,1.8S8.3,8.1,9,8.1s1.3-0.2,1.8-0.7s0.7-1.1,0.7-1.8s-0.2-1.3-0.7-1.8
	C10.3,3.4,9.7,3.1,9,3.1L9,3.1z M19.5,7.1c-0.7,0-1.3,0.2-1.8,0.7S17,8.9,17,9.6s0.2,1.3,0.7,1.8s1.1,0.7,1.8,0.7s1.3-0.2,1.8-0.7
	S22,10.3,22,9.6s-0.2-1.3-0.7-1.8S20.2,7.1,19.5,7.1L19.5,7.1z M4.5,7.1c-0.7,0-1.3,0.2-1.8,0.7S2,8.9,2,9.6s0.2,1.3,0.7,1.8
	s1.1,0.7,1.8,0.7s1.3-0.2,1.8-0.7C6.8,10.9,7,10.3,7,9.6S6.8,8.3,6.3,7.8S5.2,7.1,4.5,7.1L4.5,7.1z M12,10.1c-0.6,0-1.1,0.1-1.6,0.4
	s-0.9,0.6-1.3,1.1c-0.5,0.5-0.9,1.1-1.2,1.7c-0.3,0.6-0.8,1.2-1.2,1.7c-0.6,0.6-1.2,1.3-1.8,1.9C4.3,17.6,4,18.4,4,19.2
	c0,0.8,0.3,1.5,0.8,2c0.5,0.6,1.1,0.9,1.9,0.9c0.9,0,1.8-0.1,2.7-0.2c0.9-0.1,1.8-0.2,2.7-0.2s1.8,0.1,2.7,0.2s1.8,0.2,2.7,0.2
	c0.8,0,1.4-0.3,1.9-0.9s0.8-1.3,0.8-2c0-0.9-0.3-1.6-0.9-2.3c-0.6-0.7-1.2-1.3-1.8-1.9c-0.5-0.5-0.9-1.1-1.3-1.7
	c-0.4-0.6-0.8-1.2-1.2-1.7c-0.4-0.4-0.8-0.8-1.3-1.1C13.1,10.3,12.6,10.1,12,10.1L12,10.1z"/>
</svg>
