<?xml version="1.0" encoding="utf-8"?>
<!-- Generator: Adobe Illustrator 28.1.0, SVG Export Plug-In . SVG Version: 6.00 Build 0)  -->
<svg version="1.1" id="Ebene_1" xmlns="http://www.w3.org/2000/svg" xmlns:xlink="http://www.w3.org/1999/xlink" x="0px" y="0px"
	 viewBox="0 0 25 25" style="enable-background:new 0 0 25 25;" xml:space="preserve">
<style type="text/css">
	.st0{fill:#426C2B;}
	.st1{fill:#4E6B2C;}
	.st2{fill:#FFFFFF;}
	.st3{fill:#53A00A;}
</style>
<path class="st3" d="M11.4,21.4v-4.4c0-0.6,0.5-1.1,1.1-1.1h0c0.6,0,1.1,0.5,1.1,1.1v1.1h7.8c0.6,0,1.1,0.5,1.1,1.1v0
	c0,0.6-0.5,1.1-1.1,1.1h-7.8v1.1c0,0.6-0.5,1.1-1.1,1.1h0C11.9,22.5,11.4,22,11.4,21.4z M2.5,19.2L2.5,19.2c0-0.6,0.5-1.1,1.1-1.1
	h4.4c0.6,0,1.1,0.5,1.1,1.1v0c0,0.6-0.5,1.1-1.1,1.1H3.6C3,20.3,2.5,19.8,2.5,19.2z M6.9,14.7v-1.1H3.6c-0.6,0-1.1-0.5-1.1-1.1v0
	c0-0.6,0.5-1.1,1.1-1.1h3.3v-1.1c0-0.6,0.5-1.1,1.1-1.1h0c0.6,0,1.1,0.5,1.1,1.1v4.4c0,0.6-0.5,1.1-1.1,1.1h0
	C7.4,15.8,6.9,15.3,6.9,14.7z M11.4,12.5L11.4,12.5c0-0.6,0.5-1.1,1.1-1.1h8.9c0.6,0,1.1,0.5,1.1,1.1v0c0,0.6-0.5,1.1-1.1,1.1h-8.9
	C11.9,13.6,11.4,13.1,11.4,12.5z M15.8,8.1V3.6c0-0.6,0.5-1.1,1.1-1.1h0c0.6,0,1.1,0.5,1.1,1.1v1.1h3.3c0.6,0,1.1,0.5,1.1,1.1v0
	c0,0.6-0.5,1.1-1.1,1.1h-3.3v1.1c0,0.6-0.5,1.1-1.1,1.1h0C16.3,9.2,15.8,8.7,15.8,8.1z M2.5,5.8L2.5,5.8c0-0.6,0.5-1.1,1.1-1.1h8.9
	c0.6,0,1.1,0.5,1.1,1.1v0c0,0.6-0.5,1.1-1.1,1.1H3.6C3,6.9,2.5,6.4,2.5,5.8z"/>
</svg>
