<?xml version="1.0" encoding="utf-8"?>
<!-- Generator: Adobe Illustrator 28.1.0, SVG Export Plug-In . SVG Version: 6.00 Build 0)  -->
<svg version="1.1" id="Ebene_1" xmlns="http://www.w3.org/2000/svg" xmlns:xlink="http://www.w3.org/1999/xlink" x="0px" y="0px"
	 viewBox="0 0 25 25" style="enable-background:new 0 0 25 25;" xml:space="preserve">
<style type="text/css">
	.st0{fill:#426C2B;}
	.st1{fill:#4E6B2C;}
	.st2{fill:#FFFFFF;}
	.st3{fill:#53A00A;}
</style>
<g>
	<path class="st3" d="M10,23.5H2.5c0,0,0,0,0,0l0,0c-0.1,0-0.3,0-0.4-0.1c-0.1,0-0.2-0.1-0.3-0.2S1.6,23,1.6,22.9
		c0-0.1-0.1-0.2-0.1-0.4l0,0c0,0,0,0,0,0V15c0-0.6,0.4-1,1-1s1,0.4,1,1v5.1L8,15.5c0.4-0.4,1-0.4,1.4,0s0.4,1,0,1.4l-4.5,4.5H10
		c0.6,0,1,0.4,1,1S10.6,23.5,10,23.5z"/>
	<path class="st3" d="M22.5,11c-0.6,0-1-0.4-1-1V4.9L17,9.5c-0.4,0.4-1,0.4-1.4,0s-0.4-1,0-1.4l4.5-4.5H15c-0.6,0-1-0.4-1-1
		s0.4-1,1-1h7.5c0,0,0,0,0,0l0,0c0.1,0,0.3,0,0.4,0.1c0.1,0,0.2,0.1,0.3,0.2s0.2,0.2,0.2,0.3c0,0.1,0.1,0.2,0.1,0.4l0,0c0,0,0,0,0,0
		V10C23.5,10.6,23.1,11,22.5,11z"/>
</g>
</svg>
