<?xml version="1.0" encoding="utf-8"?>
<!-- Generator: Adobe Illustrator 28.1.0, SVG Export Plug-In . SVG Version: 6.00 Build 0)  -->
<svg version="1.1" id="Ebene_1" xmlns="http://www.w3.org/2000/svg" xmlns:xlink="http://www.w3.org/1999/xlink" x="0px" y="0px"
	 viewBox="0 0 25 25" style="enable-background:new 0 0 25 25;" xml:space="preserve">
<style type="text/css">
	.st0{fill:#426C2B;}
	.st1{fill:#4E6B2C;}
	.st2{fill:#FFFFFF;}
	.st3{fill:#53A00A;}
</style>
<g>
	<path class="st3" d="M12.5,18.5c-3.3,0-6-2.7-6-6s2.7-6,6-6s6,2.7,6,6S15.8,18.5,12.5,18.5z M12.5,8.5c-2.2,0-4,1.8-4,4s1.8,4,4,4
		s4-1.8,4-4S14.7,8.5,12.5,8.5z"/>
	<path class="st3" d="M12.5,8.5c-0.6,0-1-0.4-1-1v-5c0-0.6,0.4-1,1-1s1,0.4,1,1v5C13.5,8.1,13.1,8.5,12.5,8.5z"/>
	<path class="st3" d="M12.5,23.5c-0.6,0-1-0.4-1-1v-5c0-0.6,0.4-1,1-1s1,0.4,1,1v5C13.5,23.1,13.1,23.5,12.5,23.5z"/>
	<path class="st3" d="M9,10c-0.3,0-0.5-0.1-0.7-0.3L4.8,6.1c-0.4-0.4-0.4-1,0-1.4s1-0.4,1.4,0l3.6,3.6c0.4,0.4,0.4,1,0,1.4
		C9.5,9.9,9.3,10,9,10z"/>
	<path class="st3" d="M19.6,20.6c-0.3,0-0.5-0.1-0.7-0.3l-3.5-3.5c-0.4-0.4-0.4-1,0-1.4s1-0.4,1.4,0l3.5,3.5c0.4,0.4,0.4,1,0,1.4
		C20.1,20.5,19.8,20.6,19.6,20.6z"/>
	<path class="st3" d="M22.5,13.5h-5c-0.6,0-1-0.4-1-1s0.4-1,1-1h5c0.6,0,1,0.4,1,1S23,13.5,22.5,13.5z"/>
	<path class="st3" d="M7.5,13.5h-5c-0.6,0-1-0.4-1-1s0.4-1,1-1h5c0.6,0,1,0.4,1,1S8.1,13.5,7.5,13.5z"/>
	<path class="st3" d="M16,10c-0.3,0-0.5-0.1-0.7-0.3c-0.4-0.4-0.4-1,0-1.4l3.5-3.5c0.4-0.4,1-0.4,1.4,0s0.4,1,0,1.4l-3.5,3.5
		C16.5,9.9,16.3,10,16,10z"/>
	<path class="st3" d="M5.5,20.6c-0.3,0-0.5-0.1-0.7-0.3c-0.4-0.4-0.4-1,0-1.4l3.5-3.5c0.4-0.4,1-0.4,1.4,0s0.4,1,0,1.4l-3.5,3.5
		C6,20.5,5.7,20.6,5.5,20.6z"/>
</g>
</svg>
