<?xml version="1.0" encoding="utf-8"?>
<!-- Generator: Adobe Illustrator 28.1.0, SVG Export Plug-In . SVG Version: 6.00 Build 0)  -->
<svg version="1.1" id="Ebene_1" xmlns="http://www.w3.org/2000/svg" xmlns:xlink="http://www.w3.org/1999/xlink" x="0px" y="0px"
	 viewBox="0 0 25 25" style="enable-background:new 0 0 25 25;" xml:space="preserve">
<style type="text/css">
	.st0{fill:#426C2B;}
	.st1{fill:#4E6B2C;}
	.st2{fill:#FFFFFF;}
	.st3{fill:#53A00A;}
</style>
<g>
	<path class="st3" d="M10.3,19.3v-2.5c0-0.4-0.3-0.8-0.8-0.8s-0.8,0.3-0.8,0.8v2.5c0,0.4,0.3,0.8,0.8,0.8S10.3,19.7,10.3,19.3z"/>
	<path class="st3" d="M17.3,11.9h-2.5c-0.4,0-0.8,0.3-0.8,0.8s0.3,0.8,0.8,0.8h2.5c0.4,0,0.8-0.3,0.8-0.8S17.7,11.9,17.3,11.9z"/>
	<path class="st3" d="M17.3,9.4h-2.5c-0.4,0-0.8,0.3-0.8,0.8s0.3,0.8,0.8,0.8h2.5c0.4,0,0.8-0.3,0.8-0.8S17.7,9.4,17.3,9.4z"/>
	<path class="st3" d="M17.3,6.9h-2.5c-0.4,0-0.8,0.3-0.8,0.8s0.3,0.8,0.8,0.8h2.5c0.4,0,0.8-0.3,0.8-0.8S17.7,6.9,17.3,6.9z"/>
	<path class="st3" d="M19.9,4.4h-5c-0.4,0-0.8,0.3-0.8,0.8s0.3,0.8,0.8,0.8h5c0.4,0,0.8-0.3,0.8-0.8S20.3,4.4,19.9,4.4z"/>
	<path class="st3" d="M12.5,13.5V4.9c0-1.4-1.2-2.6-2.6-2.6S7.2,3.5,7.2,4.9v8.7c-1.4,0.9-2.3,2.5-2.3,4.2c0,2.6,2.5,5.5,5.4,4.9
		c0.2,0,0.4,0,0.6-0.1c1.1-0.1,2.1-0.8,2.8-1.6C15.6,18.7,15,15,12.5,13.5z M6.6,17.8c0-0.6,0.2-1.2,0.5-1.8
		c0.2-0.3,0.5-0.6,0.9-0.8c0.3-0.2,0.7-0.4,0.9-0.8C9,14.2,9,14,9,13.8c0-0.7,0-1.4,0-2.1c0-1.1,0-2.2,0-3.3c0-1.2,0-2.4,0-3.6
		C8.9,4.4,9.3,4,9.8,4s0.9,0.4,0.9,0.9V14c0,0.3,0.2,0.7,0.5,0.8c1.1,0.5,1.8,1.7,1.8,2.9v0.1c0,1.8-1.4,3.2-3.2,3.2H9.8
		C8.1,21,6.6,19.5,6.6,17.8z"/>
</g>
</svg>
