<?xml version="1.0" encoding="utf-8"?>
<!-- Generator: Adobe Illustrator 28.1.0, SVG Export Plug-In . SVG Version: 6.00 Build 0)  -->
<svg version="1.1" id="Ebene_1" xmlns="http://www.w3.org/2000/svg" xmlns:xlink="http://www.w3.org/1999/xlink" x="0px" y="0px"
	 viewBox="0 0 40 40" style="enable-background:new 0 0 40 40;" xml:space="preserve">
<style type="text/css">
	.st0{fill:none;stroke:#426B1F;stroke-width:2;stroke-linecap:round;stroke-linejoin:round;}
	.st1{fill:#426B1F;}
	.st2{fill:none;stroke:#426B1F;stroke-width:2;}
	.st3{fill:none;stroke:#426B1F;stroke-width:2;stroke-linecap:round;}
</style>
<g>
	<path class="st3" d="M17.7,31.9c-0.8,0-1.7-0.3-2.3-0.8c-0.7-0.5-1.2-1.2-1.4-2.1"/>
	<path class="st2" d="M17.7,5c1-1.8,1.6-2.7,2.3-2.7c0.8,0,1.3,0.9,2.3,2.7l4.4,7.5c1.9,3.2,3.4,6.7,4.4,10.3l0,0
		c2.1,7.4-3.5,14.8-11.2,14.8l0,0l0,0c-7.7,0-13.3-7.4-11.2-14.8l0,0c1-3.6,2.5-7,4.4-10.3L17.7,5z"/>
</g>
</svg>
