<?xml version="1.0" encoding="utf-8"?>
<!-- Generator: Adobe Illustrator 28.1.0, SVG Export Plug-In . SVG Version: 6.00 Build 0)  -->
<svg version="1.1" id="Ebene_1" xmlns="http://www.w3.org/2000/svg" xmlns:xlink="http://www.w3.org/1999/xlink" x="0px" y="0px"
	 viewBox="0 0 25 25" style="enable-background:new 0 0 25 25;" xml:space="preserve">
<style type="text/css">
	.st0{fill:#426C2B;}
	.st1{fill:#4E6B2C;}
	.st2{fill:#FFFFFF;}
	.st3{fill:#53A00A;}
</style>
<g>
	<path class="st0" d="M11.3,20.3c-0.7,0-1.4-0.3-1.9-0.7c-0.6-0.4-1-1-1.1-1.7c-0.1-0.5,0.2-1.1,0.8-1.2c0.5-0.1,1.1,0.2,1.2,0.8
		c0.1,0.2,0.2,0.4,0.4,0.6c0.2,0.2,0.5,0.3,0.7,0.3c0.6,0,1,0.4,1,1S11.8,20.3,11.3,20.3z"/>
	<path class="st0" d="M12.5,23.5c-2.4,0-4.6-1.1-6.1-3c-1.4-1.9-1.9-4.3-1.3-6.6c0.6-2,1.4-4,2.6-6.1l2.6-4.3c0.6-1,1.1-2,2.2-2
		c1,0,1.5,0.9,2.2,2l2.5,4.2c1.1,1.9,2,4,2.6,6.1c0.7,2.3,0.2,4.7-1.3,6.6C17.1,22.4,14.9,23.5,12.5,23.5z M12.6,3.8
		c-0.2,0.3-0.4,0.6-0.4,0.7l0,0L9.5,8.8c-1.1,1.9-1.9,3.7-2.4,5.6C6.6,16.1,7,17.9,8,19.3c1.1,1.4,2.7,2.2,4.5,2.2s3.4-0.8,4.5-2.2
		c1.1-1.4,1.4-3.2,0.9-4.9c-0.5-2-1.3-3.8-2.4-5.6L13,4.5C12.8,4.3,12.7,4,12.6,3.8z"/>
</g>
</svg>
