<?xml version="1.0" encoding="utf-8"?>
<!-- Generator: Adobe Illustrator 28.1.0, SVG Export Plug-In . SVG Version: 6.00 Build 0)  -->
<svg version="1.1" id="Ebene_1" xmlns="http://www.w3.org/2000/svg" xmlns:xlink="http://www.w3.org/1999/xlink" x="0px" y="0px"
	 viewBox="0 0 24 24" style="enable-background:new 0 0 24 24;" xml:space="preserve">
<style type="text/css">
	.st0{fill:#426B1F;}
</style>
<path class="st0" d="M12,21l-1.4-1.3c-1.7-1.5-3.1-2.8-4.2-3.9s-2-2.1-2.6-3s-1.1-1.7-1.4-2.4S2,8.9,2,8.1c0-1.6,0.5-2.9,1.6-3.9
	s2.4-1.6,3.9-1.6c0.9,0,1.7,0.2,2.5,0.6s1.5,0.9,2,1.5c0.6-0.7,1.2-1.2,2-1.5s1.6-0.6,2.5-0.6c1.6,0,2.9,0.5,3.9,1.6
	c1,1,1.6,2.4,1.6,3.9c0,0.8-0.1,1.5-0.4,2.2c-0.3,0.7-0.7,1.5-1.4,2.4s-1.5,1.9-2.6,3s-2.5,2.4-4.2,3.9L12,21z M12,18.3
	c1.6-1.4,2.9-2.7,3.9-3.7s1.9-1.9,2.4-2.7c0.6-0.8,1-1.4,1.2-2C19.9,9.3,20,8.7,20,8.1c0-1-0.3-1.8-1-2.5c-0.7-0.7-1.5-1-2.5-1
	c-0.8,0-1.5,0.2-2.2,0.7c-0.7,0.4-1.1,1-1.4,1.7H12h-0.9c-0.2-0.7-0.7-1.2-1.4-1.7C9,4.9,8.3,4.6,7.5,4.6c-1,0-1.8,0.3-2.5,1
	S4,7.1,4,8.1c0,0.6,0.1,1.2,0.3,1.8c0.2,0.6,0.7,1.3,1.2,2s1.4,1.6,2.5,2.7S10.4,16.9,12,18.3z"/>
</svg>
