<?xml version="1.0" encoding="utf-8"?>
<!-- Generator: Adobe Illustrator 28.1.0, SVG Export Plug-In . SVG Version: 6.00 Build 0)  -->
<svg version="1.1" id="Ebene_1" xmlns="http://www.w3.org/2000/svg" xmlns:xlink="http://www.w3.org/1999/xlink" x="0px" y="0px"
	 viewBox="0 0 40 40" style="enable-background:new 0 0 40 40;" xml:space="preserve">
<style type="text/css">
	.st0{fill:none;stroke:#426B1F;stroke-width:2;stroke-linecap:round;stroke-linejoin:round;}
	.st1{fill:#426B1F;}
	.st2{fill:none;stroke:#426B1F;stroke-width:2;}
	.st3{fill:none;stroke:#426B1F;stroke-width:2;stroke-linecap:round;}
</style>
<g>
	<path class="st0" d="M15.4,32.7v-4.6"/>
	<path class="st0" d="M23.5,21.2h4.6"/>
	<path class="st0" d="M23.5,16.5h4.6"/>
	<path class="st0" d="M23.5,11.9h4.6"/>
	<path class="st0" d="M23.5,7.3h9.3"/>
	<path class="st1" d="M19.3,22.9h-1.2c0,0.4,0.3,0.9,0.7,1L19.3,22.9z M12.8,22.9l0.5,1c0.4-0.2,0.7-0.6,0.7-1H12.8z M18.1,5.9v17
		h2.3v-17H18.1z M16,3.8c1.2,0,2.1,0.9,2.1,2.1h2.3c0-2.4-2-4.4-4.4-4.4V3.8z M13.9,5.9c0-1.2,0.9-2.1,2.1-2.1V1.5
		c-2.4,0-4.4,2-4.4,4.4H13.9z M13.9,22.9v-17h-2.3v17H13.9z M9.6,29.8c0-2.6,1.5-4.8,3.7-5.8l-1-2.1c-3,1.4-5,4.4-5,7.9H9.6z
		 M16,36.2c-3.6,0-6.4-2.9-6.4-6.4H7.3c0,4.8,3.9,8.8,8.8,8.8V36.2z M22.5,29.8c0,3.6-2.9,6.4-6.4,6.4v2.3c4.8,0,8.8-3.9,8.8-8.8
		H22.5z M18.8,23.9c2.2,1,3.7,3.3,3.7,5.8h2.3c0-3.5-2-6.5-5-7.9L18.8,23.9z"/>
</g>
</svg>
