<svg width="34" height="34" viewBox="0 0 34 34" fill="none" xmlns="http://www.w3.org/2000/svg">
<path d="M17 25.5C16.3763 25.5 15.77 25.2942 15.2752 24.9145C14.7803 24.5348 14.4246 24.0024 14.2632 23.4" stroke="#426B1F" stroke-width="2" stroke-linecap="round"/>
<path d="M15.2761 5.7639C16.0441 4.45839 16.428 3.80564 17 3.80564C17.5719 3.80564 17.9559 4.45839 18.7239 5.7639L23.0952 13.1951C23.7513 14.3105 24.2632 15.5047 24.6187 16.749L25.2198 18.8527C26.7801 24.3138 22.6796 29.75 17 29.75V29.75V29.75C11.3204 29.75 7.21985 24.3138 8.78016 18.8527L9.38123 16.749C9.73675 15.5047 10.2487 14.3105 10.9048 13.1951L15.2761 5.7639Z" stroke="#426B1F" stroke-width="2"/>
</svg>
